<svg width="30" height="29" viewBox="0 0 30 29" fill="none" xmlns="http://www.w3.org/2000/svg">
<g id="Group 1">
<g id="&#240;&#159;&#166;&#134; icon &#34;GitHub&#34;">
<path id="Vector" d="M9.94635 23.346C9.94635 23.466 9.80846 23.5619 9.63459 23.5619C9.43674 23.5799 9.29885 23.4839 9.29885 23.346C9.29885 23.2261 9.43674 23.1302 9.61061 23.1302C9.79047 23.1122 9.94635 23.2081 9.94635 23.346ZM8.08178 23.0763C8.03982 23.1962 8.15972 23.3341 8.33959 23.37C8.49547 23.43 8.67533 23.37 8.7113 23.2501C8.74727 23.1302 8.63336 22.9923 8.4535 22.9384C8.29762 22.8964 8.12375 22.9563 8.08178 23.0763ZM10.7317 22.9743C10.5579 23.0163 10.438 23.1302 10.456 23.2681C10.4739 23.388 10.6298 23.466 10.8097 23.424C10.9836 23.382 11.1035 23.2681 11.0855 23.1482C11.0675 23.0343 10.9056 22.9563 10.7317 22.9743ZM14.6767 0C6.36111 0 0 6.31314 0 14.6287C0 21.2776 4.18478 26.9673 10.1622 28.9697C10.9296 29.1076 11.1994 28.634 11.1994 28.2443C11.1994 27.8726 11.1814 25.8221 11.1814 24.5631C11.1814 24.5631 6.98463 25.4624 6.10331 22.7765C6.10331 22.7765 5.41983 21.0318 4.43659 20.5822C4.43659 20.5822 3.06364 19.6409 4.53251 19.6589C4.53251 19.6589 6.02537 19.7788 6.84673 21.2057C8.15972 23.5199 10.36 22.8544 11.2174 22.4587C11.3553 21.4995 11.745 20.834 12.1766 20.4383C8.82521 20.0666 5.44381 19.5809 5.44381 13.8134C5.44381 12.1646 5.89946 11.3373 6.85872 10.2821C6.70284 9.89239 6.19324 8.28563 7.0146 6.21122C8.26764 5.82152 11.1514 7.82998 11.1514 7.82998C12.3505 7.49424 13.6395 7.32037 14.9165 7.32037C16.1935 7.32037 17.4826 7.49424 18.6816 7.82998C18.6816 7.82998 21.5654 5.81553 22.8184 6.21122C23.6398 8.29162 23.1302 9.89239 22.9743 10.2821C23.9336 11.3433 24.5211 12.1706 24.5211 13.8134C24.5211 19.5989 20.9899 20.0606 17.6384 20.4383C18.19 20.9119 18.6576 21.8112 18.6576 23.2201C18.6576 25.2406 18.6397 27.7407 18.6397 28.2323C18.6397 28.622 18.9155 29.0956 19.6769 28.9577C25.6723 26.9673 29.7371 21.2776 29.7371 14.6287C29.7371 6.31314 22.9923 0 14.6767 0ZM5.82752 20.6781C5.74958 20.738 5.76756 20.8759 5.86949 20.9899C5.96541 21.0858 6.10331 21.1278 6.18125 21.0498C6.25919 20.9899 6.2412 20.852 6.13928 20.738C6.04335 20.6421 5.90546 20.6002 5.82752 20.6781ZM5.18002 20.1925C5.13805 20.2704 5.198 20.3663 5.31791 20.4263C5.41384 20.4862 5.53374 20.4683 5.57571 20.3843C5.61768 20.3064 5.55772 20.2105 5.43782 20.1505C5.31791 20.1145 5.22198 20.1325 5.18002 20.1925ZM7.12252 22.3268C7.0266 22.4048 7.06257 22.5846 7.20046 22.6985C7.33836 22.8364 7.51222 22.8544 7.59016 22.7585C7.6681 22.6806 7.63213 22.5007 7.51222 22.3868C7.38032 22.2489 7.20046 22.2309 7.12252 22.3268ZM6.43905 21.4455C6.34312 21.5055 6.34312 21.6613 6.43905 21.7992C6.53497 21.9371 6.69685 21.9971 6.77479 21.9371C6.87072 21.8592 6.87072 21.7033 6.77479 21.5654C6.69085 21.4275 6.53497 21.3676 6.43905 21.4455Z" fill="white"/>
</g>
</g>
</svg>
