<svg width="28" height="16" viewBox="0 0 28 16" fill="none" xmlns="http://www.w3.org/2000/svg">
<path fill-rule="evenodd" clip-rule="evenodd" d="M26.7945 1.5157C26.9809 0.930215 26.7945 0.5 25.9072 0.5H22.9731C22.2271 0.5 21.8831 0.871682 21.6966 1.28147C21.6966 1.28147 20.2045 4.70653 18.0907 6.93129C17.4069 7.5753 17.096 7.7802 16.723 7.7802C16.5365 7.7802 16.2665 7.5753 16.2665 6.98987V1.51574C16.2665 0.813147 16.05 0.5 15.4283 0.5H10.8175C10.3513 0.5 10.0709 0.826123 10.0709 1.13516C10.0709 1.8012 11.1278 1.95477 11.2367 3.82833V7.89736C11.2367 8.78945 11.0656 8.95121 10.6926 8.95121C9.69793 8.95121 7.27835 5.51089 5.84333 1.57423C5.56214 0.80908 5.28007 0.5 4.53017 0.5H1.59609C0.757782 0.5 0.590073 0.871682 0.590073 1.28147C0.590073 2.01335 1.5848 5.64331 5.22168 10.4441C7.64625 13.7227 11.0623 15.5 14.1708 15.5C16.0359 15.5 16.2666 15.1053 16.2666 14.4253V11.9474C16.2666 11.1579 16.4433 11.0003 17.0339 11.0003C17.4691 11.0003 18.2151 11.2053 19.9559 12.786C21.9453 14.6595 22.2733 15.5 23.3923 15.5H26.3264C27.1647 15.5 27.5838 15.1053 27.342 14.3263C27.0774 13.5499 26.1276 12.4234 24.8672 11.0881C24.1834 10.3271 23.1576 9.5074 22.8467 9.09752C22.4115 8.57067 22.5359 8.33639 22.8467 7.86807C22.8467 7.86807 26.4215 3.12573 26.7945 1.5157Z" fill="white"/>
</svg>
