<svg width="32" height="20" viewBox="0 0 32 20" fill="none" xmlns="http://www.w3.org/2000/svg">
<path d="M31.3273 3.08479C30.9473 1.87791 29.8953 0.931362 28.5403 0.596762C26.0453 2.85291e-05 16.0153 2.86734e-05 16.0153 2.86734e-05C16.0153 2.86734e-05 6.00427 -0.0142859 3.48327 0.596762C2.13527 0.932257 1.07827 1.87791 0.702275 3.08479C0.229275 5.37242 -0.00572531 7.68778 0.00527469 10.0139C0.000274693 12.3248 0.234275 14.6366 0.702275 16.9099C1.07827 18.1168 2.13527 19.0633 3.48327 19.4033C5.97827 20 16.0153 20 16.0153 20C16.0153 20 26.0203 20 28.5403 19.4033C29.8953 19.0633 30.9473 18.1177 31.3273 16.9099C31.7863 14.6366 32.0103 12.3248 31.9943 10.0139C32.0103 7.68778 31.7913 5.37242 31.3273 3.08479ZM12.8113 14.2966V5.71239L21.1603 10.0139L12.8113 14.2966Z" fill="white"/>
</svg>
